<svg width="369" height="345" viewBox="0 0 369 345" fill="none" xmlns="http://www.w3.org/2000/svg">
<g filter="url(#filter0_d_501_346)">
<path d="M161.48 181.137H114.891L114.397 166.813C114.376 166.192 114.489 165.573 114.73 165C114.97 164.428 115.332 163.914 115.79 163.494C116.248 163.074 116.792 162.759 117.383 162.569C117.975 162.38 118.601 162.321 119.218 162.396L146.329 165.716H146.332C150.352 165.727 154.203 167.33 157.042 170.175C159.882 173.02 161.477 176.875 161.48 180.894V181.137Z" fill="#F38C10"/>
<path d="M140.715 130.325H108.221C107.349 130.325 106.512 130.671 105.895 131.288C105.278 131.905 104.931 132.741 104.931 133.614V166.109C104.931 166.541 105.016 166.969 105.181 167.368C105.346 167.767 105.588 168.13 105.894 168.436C106.199 168.741 106.562 168.984 106.961 169.149C107.36 169.314 107.787 169.4 108.219 169.4H140.715C141.147 169.4 141.574 169.315 141.974 169.15C142.373 168.984 142.736 168.742 143.041 168.437C143.347 168.131 143.589 167.769 143.754 167.37C143.92 166.971 144.005 166.543 144.005 166.111V133.616C144.005 132.743 143.659 131.906 143.042 131.289C142.426 130.672 141.589 130.325 140.717 130.325H140.715Z" fill="#CCCCCC"/>
<path d="M133.397 154.623L118.055 157.61C117.145 157.786 116.202 157.594 115.434 157.076C114.665 156.558 114.133 155.757 113.955 154.847L112.776 148.791C112.6 147.881 112.792 146.938 113.31 146.17C113.828 145.401 114.63 144.869 115.539 144.691L130.881 141.703C131.791 141.527 132.734 141.719 133.502 142.237C134.271 142.755 134.803 143.557 134.981 144.467L136.16 150.523C136.336 151.433 136.144 152.376 135.626 153.144C135.108 153.913 134.306 154.445 133.397 154.623Z" fill="#3F3D56"/>
<path d="M130.327 147.469L118.619 149.749C118.512 149.769 118.403 149.769 118.297 149.748C118.191 149.727 118.09 149.685 118 149.624C117.911 149.564 117.834 149.486 117.774 149.396C117.714 149.306 117.673 149.205 117.652 149.099C117.631 148.993 117.632 148.883 117.653 148.777C117.675 148.671 117.717 148.571 117.778 148.481C117.838 148.391 117.916 148.314 118.006 148.255C118.097 148.195 118.198 148.154 118.304 148.134L130.012 145.854C130.226 145.813 130.448 145.858 130.628 145.98C130.809 146.102 130.933 146.29 130.975 146.504C131.016 146.718 130.972 146.94 130.85 147.12C130.729 147.301 130.54 147.426 130.327 147.469Z" fill="white"/>
<path d="M128.051 150.845L121.995 152.024C121.889 152.045 121.78 152.044 121.675 152.023C121.569 152.001 121.468 151.959 121.378 151.899C121.289 151.838 121.212 151.761 121.152 151.671C121.093 151.581 121.051 151.48 121.031 151.374C121.01 151.268 121.011 151.159 121.032 151.053C121.054 150.947 121.096 150.846 121.156 150.757C121.216 150.667 121.294 150.59 121.384 150.531C121.474 150.471 121.575 150.43 121.681 150.409L127.737 149.23C127.951 149.188 128.172 149.234 128.353 149.356C128.534 149.478 128.658 149.666 128.7 149.88C128.742 150.094 128.697 150.316 128.575 150.497C128.454 150.677 128.265 150.803 128.051 150.845Z" fill="white"/>
<path d="M144.005 133.616V137.934H104.931V133.616C104.93 132.743 105.277 131.906 105.894 131.289C106.51 130.672 107.347 130.325 108.219 130.325H140.715C141.147 130.325 141.574 130.41 141.974 130.575C142.373 130.74 142.735 130.983 143.041 131.288C143.347 131.593 143.589 131.956 143.754 132.355C143.92 132.754 144.005 133.182 144.005 133.614V133.616Z" fill="#B3B3B3"/>
<path d="M222.034 139.287C221.808 138.559 221.425 137.889 220.913 137.325C220.4 136.761 219.771 136.316 219.067 136.021C218.364 135.727 217.605 135.59 216.843 135.62C216.082 135.651 215.336 135.848 214.659 136.198L169.955 120.159L167.986 131.327L212.548 143.581C213.211 144.68 214.254 145.497 215.48 145.878C216.705 146.259 218.028 146.177 219.197 145.647C220.367 145.118 221.301 144.179 221.824 143.006C222.347 141.834 222.421 140.511 222.034 139.287Z" fill="#FFB8B8"/>
<path opacity="0.2" d="M222.034 139.287C221.808 138.559 221.425 137.889 220.913 137.325C220.4 136.761 219.771 136.316 219.067 136.021C218.364 135.727 217.605 135.59 216.843 135.62C216.082 135.651 215.336 135.848 214.659 136.198L169.955 120.159L167.986 131.327L212.548 143.581C213.211 144.68 214.254 145.497 215.48 145.878C216.705 146.259 218.028 146.177 219.197 145.647C220.367 145.118 221.301 144.179 221.824 143.006C222.347 141.834 222.421 140.511 222.034 139.287Z" fill="black"/>
<path d="M177.89 122.194L173.669 133.223C173.549 133.537 173.362 133.821 173.123 134.056C172.883 134.291 172.595 134.472 172.279 134.586C171.963 134.7 171.626 134.745 171.291 134.717C170.956 134.689 170.631 134.589 170.339 134.424L160.079 128.65C158.478 128.026 157.189 126.793 156.496 125.22C155.802 123.647 155.76 121.864 156.379 120.261C156.998 118.657 158.228 117.365 159.798 116.667C161.369 115.968 163.152 115.921 164.757 116.535L176.214 119.076C176.542 119.149 176.85 119.292 177.118 119.494C177.386 119.697 177.607 119.955 177.766 120.251C177.925 120.547 178.018 120.874 178.04 121.209C178.061 121.545 178.01 121.881 177.89 122.194Z" fill="#F38C10"/>
<path d="M225.552 149.499L209.534 156.78L211.637 164.697C215.698 179.986 216.776 195.914 214.812 211.611L226.523 214.057L236.231 189.302L232.833 161.149L225.552 149.499Z" fill="#F38C10"/>
<path d="M256.981 186.146C246.457 186.146 237.88 193.797 237.464 203.378H276.499C276.082 193.797 267.506 186.146 256.981 186.146Z" fill="#3F3D56"/>
<path d="M248.789 187.797C248.241 144.549 223.61 148.528 223.61 148.528C223.61 148.528 224.071 161.989 224.292 162.408C239.988 192.104 214.084 226.919 181.111 220.514C180.49 220.394 179.892 220.271 179.32 220.147C175.142 219.275 171.453 216.844 169.004 213.349C166.554 209.853 165.528 205.556 166.135 201.332C169.383 175.248 153.227 175.71 153.227 175.71H129.605L117.337 164.669C116.904 164.279 116.382 164.002 115.817 163.86C115.252 163.719 114.661 163.718 114.095 163.858C113.53 163.998 113.007 164.274 112.573 164.663C112.139 165.051 111.807 165.54 111.605 166.087L110.027 170.371C110.027 170.371 86.728 172.798 88.6696 195.611H95.8728C95.8555 196.26 95.8814 196.908 95.9506 197.553L149.709 197.116C151.245 197.099 152.727 197.683 153.838 198.745C154.949 199.806 155.601 201.259 155.655 202.795C155.661 204.308 155.066 205.761 154.001 206.836C152.935 207.91 151.487 208.517 149.974 208.524C149.902 208.524 149.831 208.523 149.76 208.521L141.093 208.232C138.423 220.124 144.976 228.133 152.196 233.169C158.994 237.842 167.061 240.319 175.31 240.268H198.855C229.435 240.268 234.774 214.542 234.774 214.542C250.792 207.746 248.789 187.797 248.789 187.797Z" fill="#3F3D56"/>
<path d="M255.525 254.345C270.605 254.345 282.829 242.12 282.829 227.041C282.829 211.962 270.605 199.737 255.525 199.737C240.446 199.737 228.222 211.962 228.222 227.041C228.222 242.12 240.446 254.345 255.525 254.345Z" fill="#3F3D56"/>
<path d="M255.525 233.733C259.221 233.733 262.217 230.737 262.217 227.041C262.217 223.345 259.221 220.349 255.525 220.349C251.829 220.349 248.833 223.345 248.833 227.041C248.833 230.737 251.829 233.733 255.525 233.733Z" fill="white"/>
<path d="M117.672 254.344C135.03 254.344 149.101 240.273 149.101 222.915C149.101 205.557 135.03 191.485 117.672 191.485C100.314 191.485 86.2422 205.557 86.2422 222.915C86.2422 240.273 100.314 254.344 117.672 254.344Z" fill="#3F3D56"/>
<path d="M117.672 230.619C121.926 230.619 125.375 227.17 125.375 222.915C125.375 218.661 121.926 215.212 117.672 215.212C113.418 215.212 109.969 218.661 109.969 222.915C109.969 227.17 113.418 230.619 117.672 230.619Z" fill="white"/>
<path d="M209.579 158.931L203.816 143.277C203.209 141.63 203.282 139.809 204.018 138.215C204.754 136.621 206.093 135.384 207.741 134.778L224.264 128.695C227.163 127.628 230.368 127.755 233.172 129.05C235.977 130.345 238.153 132.702 239.22 135.601C239.697 136.889 239.94 138.252 239.939 139.626C239.933 141.37 239.538 143.091 238.784 144.664C238.029 146.237 236.933 147.621 235.576 148.718C234.596 149.504 233.495 150.125 232.314 150.557L209.579 158.931Z" fill="#3F3D56"/>
<path d="M239.696 139.626C239.695 141.335 239.311 143.022 238.571 144.562C237.832 146.103 236.757 147.458 235.425 148.528C233.381 147.989 231.479 147.011 229.851 145.663C228.224 144.315 226.909 142.628 225.999 140.72C225.089 138.812 224.606 136.729 224.582 134.616C224.558 132.502 224.995 130.409 225.863 128.481C227.527 128.119 229.252 128.135 230.91 128.526C232.569 128.918 234.118 129.676 235.445 130.745C236.772 131.814 237.842 133.167 238.578 134.703C239.314 136.24 239.696 137.922 239.696 139.626Z" fill="#F38C10"/>
<path d="M92.7956 198.766C96.5487 198.766 99.5911 195.072 99.5911 190.514C99.5911 185.957 96.5487 182.263 92.7956 182.263C89.0425 182.263 86 185.957 86 190.514C86 195.072 89.0425 198.766 92.7956 198.766Z" fill="#F38C10"/>
<path d="M182.624 219.724H188.574L191.406 204.29L182.623 204.291L182.624 219.724Z" fill="#FFB8B8"/>
<path d="M181.105 217.782L192.825 217.781C193.806 217.781 194.777 217.974 195.683 218.35C196.589 218.725 197.413 219.275 198.106 219.969C198.8 220.662 199.35 221.485 199.725 222.391C200.101 223.298 200.294 224.269 200.294 225.249V225.492L181.106 225.493L181.105 217.782Z" fill="#2F2E41"/>
<path d="M189.531 213.389C189.462 213.389 189.392 213.386 189.323 213.379L181.087 212.78C180.754 212.749 180.432 212.642 180.147 212.467C179.862 212.292 179.621 212.054 179.442 211.771C179.264 211.488 179.152 211.168 179.117 210.836C179.081 210.503 179.123 210.167 179.238 209.853L190.26 185.091C190.338 184.87 190.371 184.635 190.354 184.401C190.338 184.167 190.273 183.94 190.164 183.732C190.056 183.522 189.904 183.337 189.719 183.19C189.534 183.043 189.32 182.936 189.091 182.878C183.908 181.523 170.611 177.916 159.1 173.695C154.169 171.887 151.063 169.273 149.868 165.928C149.42 164.511 149.265 163.018 149.412 161.539C149.559 160.06 150.005 158.627 150.723 157.326L150.801 157.193L161.633 158.178L173.375 159.177L199.108 172.975C201.264 174.142 202.902 176.077 203.695 178.396C204.488 180.716 204.379 183.249 203.388 185.491L191.524 212.095C191.353 212.48 191.073 212.807 190.72 213.037C190.366 213.267 189.953 213.389 189.531 213.389Z" fill="#2F2E41"/>
<path d="M163.608 112.637C170.193 112.637 175.53 107.299 175.53 100.715C175.53 94.1306 170.193 88.793 163.608 88.793C157.024 88.793 151.687 94.1306 151.687 100.715C151.687 107.299 157.024 112.637 163.608 112.637Z" fill="#FFB8B8"/>
<path d="M179.227 221.181H185.178L188.009 205.746L179.226 205.747L179.227 221.181Z" fill="#FFB8B8"/>
<path d="M177.708 219.238L189.427 219.237C190.408 219.237 191.38 219.43 192.286 219.806C193.192 220.181 194.015 220.731 194.709 221.425C195.402 222.118 195.952 222.941 196.328 223.847C196.703 224.754 196.896 225.725 196.896 226.705V226.948L177.708 226.949L177.708 219.238Z" fill="#2F2E41"/>
<path d="M186.134 214.846C186.065 214.846 185.995 214.843 185.925 214.836L177.69 214.237C177.356 214.206 177.035 214.099 176.75 213.924C176.465 213.749 176.223 213.511 176.045 213.228C175.866 212.945 175.755 212.625 175.719 212.293C175.684 211.96 175.725 211.624 175.841 211.31L186.862 186.547C186.941 186.327 186.973 186.092 186.957 185.858C186.94 185.624 186.876 185.397 186.767 185.189C186.659 184.979 186.507 184.794 186.322 184.647C186.137 184.5 185.923 184.393 185.694 184.335C180.511 182.98 167.214 179.373 155.703 175.152C150.771 173.344 147.665 170.73 146.471 167.385C146.023 165.968 145.868 164.475 146.015 162.996C146.162 161.517 146.608 160.084 147.326 158.783L147.404 158.65L158.235 159.635L169.977 160.634L195.71 174.432C197.866 175.598 199.504 177.534 200.297 179.853C201.091 182.173 200.981 184.706 199.991 186.948L188.127 213.552C187.955 213.937 187.676 214.264 187.322 214.494C186.968 214.724 186.556 214.846 186.134 214.846Z" fill="#2F2E41"/>
<path d="M167.193 115.948L154.572 111.579C154.572 111.579 146.65 117.666 150.456 132.766C152.443 140.558 151.864 148.783 148.805 156.221C148.437 157.141 148.013 158.037 147.534 158.905C147.534 158.905 161.611 175.894 174.716 163.274L169.62 138.761C169.62 138.761 177.629 122.501 167.193 115.948Z" fill="#F38C10"/>
<path d="M165.089 113.593C163.392 111.053 157.725 114.916 159.593 112.5C161.437 110.115 159.676 98.0555 162.5 97C166.434 95.5299 177.804 99.7568 177.093 95.6182C176.654 93.5575 176.324 87.8236 174.923 86.2502C173.522 84.6769 171.735 83.4954 169.739 82.8219C165.697 81.5295 161.32 81.7677 157.442 83.4912C155.035 84.4505 152.852 85.8978 151.031 87.742C149.21 89.5862 147.791 91.7874 146.862 94.207C145.979 96.646 145.77 99.2777 146.256 101.826C146.742 104.373 147.905 106.743 149.624 108.686C153.441 112.704 159.431 113.775 164.973 113.71" fill="#2F2E41"/>
<path d="M221.441 138.802C221.127 138.107 220.665 137.489 220.087 136.993C219.508 136.496 218.828 136.132 218.094 135.926C217.36 135.721 216.59 135.679 215.838 135.803C215.086 135.927 214.37 136.215 213.741 136.646L167.4 126.245L166.824 137.57L212.557 144.233C213.351 145.241 214.487 145.924 215.75 146.15C217.013 146.377 218.316 146.133 219.411 145.463C220.506 144.794 221.317 143.746 221.692 142.518C222.066 141.29 221.976 139.968 221.441 138.802Z" fill="#FFB8B8"/>
<path d="M175.525 127.285L172.697 138.75C172.616 139.076 172.466 139.381 172.257 139.644C172.048 139.907 171.785 140.122 171.486 140.274C171.186 140.427 170.857 140.512 170.522 140.526C170.186 140.54 169.851 140.481 169.54 140.353L158.647 135.889C156.979 135.468 155.547 134.403 154.664 132.928C153.781 131.453 153.519 129.687 153.936 128.019C154.353 126.351 155.414 124.916 156.887 124.03C158.36 123.143 160.125 122.877 161.794 123.289L173.477 124.397C173.811 124.429 174.135 124.533 174.426 124.701C174.716 124.869 174.968 125.098 175.162 125.372C175.356 125.646 175.49 125.959 175.552 126.289C175.615 126.619 175.606 126.959 175.525 127.285Z" fill="#F38C10"/>
</g>
<defs>
<filter id="filter0_d_501_346" x="0" y="-4" width="368.829" height="348.345" filterUnits="userSpaceOnUse" color-interpolation-filters="sRGB">
<feFlood flood-opacity="0" result="BackgroundImageFix"/>
<feColorMatrix in="SourceAlpha" type="matrix" values="0 0 0 0 0 0 0 0 0 0 0 0 0 0 0 0 0 0 127 0" result="hardAlpha"/>
<feOffset dy="4"/>
<feGaussianBlur stdDeviation="43"/>
<feComposite in2="hardAlpha" operator="out"/>
<feColorMatrix type="matrix" values="0 0 0 0 0.952941 0 0 0 0 0.54902 0 0 0 0 0.0627451 0 0 0 0.25 0"/>
<feBlend mode="normal" in2="BackgroundImageFix" result="effect1_dropShadow_501_346"/>
<feBlend mode="normal" in="SourceGraphic" in2="effect1_dropShadow_501_346" result="shape"/>
</filter>
</defs>
</svg>
