<svg width="18" height="18" viewBox="0 0 18 18" fill="none" xmlns="http://www.w3.org/2000/svg">
<path d="M9.5 17.5C8.39333 17.5 7.35333 17.29 6.38 16.87C5.40667 16.45 4.56 15.88 3.84 15.16C3.12 14.44 2.55 13.5933 2.13 12.62C1.71 11.6467 1.5 10.6067 1.5 9.5C1.5 8.39333 1.71 7.35333 2.13 6.38C2.55 5.40667 3.12 4.56 3.84 3.84C4.56 3.12 5.40667 2.55 6.38 2.13C7.35333 1.71 8.39333 1.5 9.5 1.5C10.6067 1.5 11.6467 1.71 12.62 2.13C13.5933 2.55 14.44 3.12 15.16 3.84C15.88 4.56 16.45 5.40667 16.87 6.38C17.29 7.35333 17.5 8.39333 17.5 9.5V10.56C17.5 11.3067 17.2367 11.9367 16.71 12.45C16.1833 12.9633 15.54 13.22 14.78 13.22C14.3 13.22 13.8467 13.1033 13.42 12.87C12.9933 12.6367 12.6667 12.3067 12.44 11.88C12.0933 12.3333 11.66 12.67 11.14 12.89C10.62 13.11 10.0733 13.22 9.5 13.22C8.46 13.22 7.57667 12.86 6.85 12.14C6.12333 11.42 5.76 10.54 5.76 9.5C5.76 8.46 6.12333 7.57333 6.85 6.84C7.57667 6.10667 8.46 5.74 9.5 5.74C10.54 5.74 11.4233 6.10667 12.15 6.84C12.8767 7.57333 13.24 8.46 13.24 9.5V10.56C13.24 10.9733 13.39 11.32 13.69 11.6C13.99 11.88 14.3533 12.02 14.78 12.02C15.1933 12.02 15.55 11.88 15.85 11.6C16.15 11.32 16.3 10.9733 16.3 10.56V9.5C16.3 7.60667 15.64 6 14.32 4.68C13 3.36 11.3933 2.7 9.5 2.7C7.60667 2.7 6 3.36 4.68 4.68C3.36 6 2.7 7.60667 2.7 9.5C2.7 11.3933 3.36 13 4.68 14.32C6 15.64 7.60667 16.3 9.5 16.3H13.78V17.5H9.5ZM9.5 12.02C10.2067 12.02 10.8067 11.7767 11.3 11.29C11.7933 10.8033 12.04 10.2067 12.04 9.5C12.04 8.78 11.7933 8.17333 11.3 7.68C10.8067 7.18667 10.2067 6.94 9.5 6.94C8.79333 6.94 8.19333 7.18667 7.7 7.68C7.20667 8.17333 6.96 8.78 6.96 9.5C6.96 10.2067 7.20667 10.8033 7.7 11.29C8.19333 11.7767 8.79333 12.02 9.5 12.02Z" fill="#F38C10"/>
</svg>
