<svg width="22" height="31" viewBox="0 0 22 31" fill="none" xmlns="http://www.w3.org/2000/svg">
<path d="M21.67 10.835C21.67 16.819 10.835 30.1496 10.835 30.1496C10.835 30.1496 0 16.819 0 10.835C0 7.96138 1.14154 5.20546 3.1735 3.1735C5.20545 1.14154 7.96138 0 10.835 0C13.7086 0 16.4645 1.14154 18.4965 3.1735C20.5285 5.20546 21.67 7.96138 21.67 10.835Z" fill="#F38C10"/>
<path d="M15.7881 10.3639C15.7881 11.3436 15.4976 12.3012 14.9534 13.1158C14.4091 13.9303 13.6355 14.5652 12.7305 14.9401C11.8254 15.3149 10.8295 15.413 9.86868 15.2219C8.90786 15.0308 8.02529 14.5591 7.33258 13.8663C6.63987 13.1736 6.16813 12.2911 5.97701 11.3303C5.78589 10.3694 5.88398 9.37352 6.25887 8.46846C6.63377 7.56339 7.26862 6.78981 8.08316 6.24555C8.8977 5.7013 9.85535 5.4108 10.835 5.4108C11.4855 5.4105 12.1297 5.53841 12.7308 5.78722C13.3319 6.03604 13.8781 6.40087 14.3381 6.86087C14.7981 7.32087 15.1629 7.86702 15.4117 8.4681C15.6605 9.06918 15.7884 9.7134 15.7881 10.3639Z" fill="white"/>
</svg>
