<svg width="320" height="320" viewBox="0 0 320 320" fill="none" xmlns="http://www.w3.org/2000/svg">
<rect width="320" height="320" rx="160" fill="#F38C10"/>
<path d="M104 214.336C104 114.394 217 113.264 217 214.336H104Z" fill="white" stroke="white"/>
<circle cx="160.5" cy="194.875" r="1.25556" fill="black"/>
<circle cx="160.5" cy="182.319" r="1.25556" fill="black"/>
<circle cx="160.5" cy="169.764" r="1.25556" fill="black"/>
<circle cx="160.5" cy="157.208" r="1.25556" fill="black"/>
<circle cx="160.5" cy="106.986" r="31.3889" fill="#9A7952"/>
<path d="M131.622 95.6857V70.5746C111.533 56.7637 124.089 22.2359 146.689 50.4859C128.287 14.8694 187.344 12.3695 180.559 44.5785C189.985 23.2565 216.227 53.6763 190.006 70.5746V95.6857H131.622Z" fill="white"/>
<path d="M131.622 70.5746V95.6857H190.006V70.5746M131.622 70.5746H160.814H190.006M131.622 70.5746C111.533 56.7637 124.089 22.2359 146.689 50.4859C127.228 12.8193 194.4 12.1915 178.706 50.4859C185.611 18.4692 218.256 52.3691 190.006 70.5746" stroke="white"/>
<path d="M112.08 260.87H94.86V279H87.93V242.67L94.02 236.72H87.09V230.63H112.08V236.72H94.86V260.03L99.97 254.78H112.08V260.87ZM150.621 272.91L144.531 279H126.401L120.381 272.91V236.72L126.401 230.63H144.531L150.621 236.72V272.91ZM143.691 272.91V236.72H127.311V272.91H143.691ZM193.707 272.91L187.617 279H163.467V242.67L169.557 236.72H162.627V230.63H187.617L193.707 236.72V272.91ZM186.777 272.91V236.72H170.397V278.16L175.507 272.91H186.777ZM235.299 236.72H211.499V248.76H227.529L233.479 254.78V272.91L227.529 279H210.589L204.569 272.91V268.08L211.499 261.43V272.91H226.549V254.78H210.589L204.569 248.76V236.72L210.589 230.63H229.209L235.299 236.72Z" fill="black"/>
</svg>
