<svg width="817" height="621" viewBox="0 0 817 621" fill="none" xmlns="http://www.w3.org/2000/svg">
<path d="M408 551C540.548 551 648 443.548 648 311C648 178.452 540.548 71 408 71C275.452 71 168 178.452 168 311C168 443.548 275.452 551 408 551Z" fill="#F38C10"/>
<path d="M384.802 402C379.381 402.009 374.103 400.267 369.765 397.038L369.496 396.837L312.856 353.816C310.233 351.82 308.031 349.329 306.378 346.488C304.724 343.646 303.65 340.509 303.217 337.255C302.784 334.001 303.001 330.695 303.855 327.524C304.709 324.354 306.184 321.381 308.195 318.776C310.206 316.172 312.714 313.986 315.576 312.344C318.438 310.701 321.597 309.635 324.874 309.205C328.151 308.775 331.481 308.991 334.674 309.839C337.867 310.687 340.861 312.151 343.484 314.148L380.171 342.082L466.863 229.782C468.873 227.179 471.381 224.994 474.241 223.352C477.102 221.711 480.26 220.645 483.536 220.215C486.811 219.786 490.14 220.001 493.332 220.848C496.524 221.696 499.516 223.16 502.138 225.156L502.145 225.161L501.607 225.903L502.16 225.161C507.45 229.198 510.911 235.154 511.784 241.722C512.656 248.29 510.869 254.933 506.814 260.194L404.845 392.224C402.486 395.266 399.453 397.728 395.981 399.418C392.509 401.108 388.691 401.982 384.825 401.97L384.802 402Z" fill="white"/>
</svg>
