<svg width="335" height="336" viewBox="0 0 335 336" fill="none" xmlns="http://www.w3.org/2000/svg">
<path d="M252.126 61.8268L249.827 60.673L243.596 73.0917L245.896 74.2455L252.126 61.8268Z" fill="white"/>
<path d="M286.897 70.6075H284.479V83.6651H286.897V70.6075Z" fill="#3F3D56"/>
<path d="M285.446 102.042H283.028V115.1H285.446V102.042Z" fill="white"/>
<path d="M315.428 90.8009C296.38 54.7719 264.806 26.9581 226.663 12.6055C188.52 -1.74712 146.443 -1.64644 108.368 12.8886C70.294 27.4235 38.8542 55.3881 19.9788 91.5079C1.10332 127.628 -3.90299 169.406 5.90406 208.963C15.7111 248.519 39.6536 283.121 73.2158 306.24C106.778 329.359 147.64 339.398 188.094 334.464C228.549 329.53 265.8 309.963 292.821 279.455C319.843 248.947 334.766 209.605 334.778 168.851C334.789 141.645 328.146 114.85 315.428 90.8009V90.8009ZM201.92 229.091C188.686 236.561 173.36 239.465 158.31 237.354C143.261 235.242 129.326 228.233 118.658 217.41C107.991 206.586 101.185 192.551 99.2921 177.472C97.3994 162.394 100.525 147.111 108.187 133.987C115.849 120.863 127.619 110.627 141.68 104.862C155.741 99.0968 171.309 98.1227 185.979 102.09C200.648 106.058 213.603 114.747 222.841 126.814C232.079 138.88 237.085 153.654 237.087 168.851C237.123 181.114 233.883 193.165 227.7 203.756C221.517 214.347 212.617 223.094 201.92 229.091H201.92Z" fill="#F38C10"/>
<path opacity="0.2" d="M167.444 325.054C124.096 325.053 82.4497 308.181 51.324 278.01C20.1984 247.839 2.03725 206.739 0.686269 163.412C0.628502 165.216 0.598968 167.028 0.597661 168.847C0.592296 190.761 4.90395 212.461 13.2864 232.709C21.6688 252.956 33.9578 271.354 49.4515 286.852C64.9452 302.349 83.34 314.643 103.585 323.03C123.831 331.417 145.53 335.734 167.444 335.734C189.358 335.734 211.058 331.417 231.303 323.03C251.549 314.643 269.944 302.349 285.437 286.852C300.931 271.354 313.22 252.956 321.602 232.709C329.985 212.461 334.296 190.761 334.291 168.847C334.291 167.026 334.262 165.212 334.203 163.405C332.853 206.734 314.693 247.836 283.567 278.008C252.441 308.18 210.794 325.053 167.444 325.054V325.054Z" fill="black"/>
<path opacity="0.2" d="M167.927 85.5945C151.462 85.5954 135.367 90.4787 121.677 99.6268C107.987 108.775 97.3174 121.777 91.0169 136.989C84.7164 152.201 83.0682 168.94 86.2806 185.089C89.493 201.237 97.4219 216.071 109.065 227.714C120.707 239.356 135.541 247.285 151.689 250.497C167.838 253.71 184.577 252.062 199.789 245.761C215.001 239.461 228.003 228.791 237.151 215.101C246.299 201.411 251.183 185.316 251.184 168.851C251.159 146.777 242.38 125.615 226.771 110.007C211.163 94.3985 190.001 85.619 167.927 85.5945V85.5945ZM201.92 229.091C188.686 236.561 173.36 239.465 158.31 237.354C143.261 235.242 129.325 228.233 118.658 217.41C107.99 206.586 101.185 192.551 99.2919 177.472C97.3993 162.394 100.525 147.111 108.187 133.987C115.848 120.863 127.619 110.627 141.68 104.862C155.741 99.0967 171.309 98.1227 185.979 102.09C200.648 106.058 213.603 114.747 222.841 126.814C232.078 138.88 237.085 153.654 237.087 168.851C237.123 181.114 233.883 193.165 227.7 203.756C221.517 214.347 212.617 223.094 201.92 229.091V229.091Z" fill="black"/>
<path d="M315.43 88.7963V116.551C315.432 118.577 314.826 120.558 313.692 122.237C312.558 123.917 310.948 125.218 309.067 125.974C307.187 126.73 305.124 126.906 303.143 126.479C301.162 126.052 299.354 125.041 297.952 123.578V126.741C297.952 129.938 296.682 133.005 294.421 135.266C292.16 137.527 289.093 138.797 285.896 138.797C282.698 138.797 279.632 137.527 277.371 135.266C275.11 133.005 273.839 129.938 273.839 126.741V124.105C272.381 125.417 270.574 126.277 268.636 126.583C266.698 126.888 264.714 126.626 262.922 125.826C261.131 125.027 259.61 123.725 258.543 122.079C257.477 120.433 256.91 118.512 256.913 116.551L256.429 87.0505V80.246C256.428 79.1569 255.994 78.113 255.223 77.3434C254.452 76.5739 253.408 76.1417 252.319 76.1417C251.229 76.1417 250.185 76.5739 249.414 77.3434C248.643 78.113 248.21 79.1569 248.208 80.246V87.0505L247.724 111.715C247.724 114.408 246.654 116.991 244.75 118.896C242.845 120.801 240.262 121.871 237.568 121.871C234.875 121.871 232.292 120.801 230.387 118.896C228.482 116.991 227.412 114.408 227.412 111.715L226.17 87.0505V74.4426C226.17 72.6559 225.46 70.9424 224.196 69.679C222.933 68.4156 221.22 67.7059 219.433 67.7059C217.646 67.7059 215.933 68.4156 214.669 69.679C213.406 70.9424 212.696 72.6559 212.696 74.4426V87.0504L211.937 111.715C211.938 113.827 211.281 115.887 210.056 117.608C208.831 119.328 207.1 120.624 205.104 121.314C203.107 122.004 200.945 122.054 198.919 121.456C196.893 120.859 195.104 119.645 193.801 117.982C192.195 120.036 189.859 121.391 187.279 121.765C184.7 122.14 182.075 121.506 179.951 119.994V126.741C179.951 129.938 178.68 133.005 176.419 135.266C174.158 137.527 171.092 138.797 167.894 138.797C164.697 138.797 161.63 137.527 159.369 135.266C157.108 133.005 155.838 129.938 155.838 126.741V105.911C155.839 108.235 155.043 110.488 153.582 112.295C152.122 114.102 150.087 115.354 147.815 115.841C145.543 116.329 143.173 116.022 141.1 114.973C139.028 113.923 137.377 112.195 136.425 110.075V126.741C136.425 129.938 135.155 133.005 132.894 135.266C130.633 137.527 127.566 138.797 124.369 138.797C121.171 138.797 118.105 137.527 115.844 135.266C113.583 133.005 112.312 129.938 112.312 126.741V87.0504H112.245V126.741C112.245 129.938 110.974 133.005 108.713 135.266C106.452 137.527 103.386 138.797 100.188 138.797C96.9906 138.797 93.9239 137.527 91.6629 135.266C89.4019 133.005 88.1316 129.938 88.1316 126.741V110.215C87.1535 112.308 85.4908 114.004 83.4182 115.024C81.3457 116.044 78.9872 116.327 76.7324 115.825C74.4777 115.323 72.4615 114.067 71.0169 112.265C69.5723 110.463 68.7857 108.221 68.7871 105.911V87.0504H67.7522V120.937C67.7522 124.135 66.4819 127.201 64.2209 129.462C61.9599 131.724 58.8932 132.994 55.6957 132.994C52.4981 132.994 49.4315 131.724 47.1704 129.462C44.9094 127.201 43.6392 124.135 43.6392 120.937V105.911C43.6405 107.246 43.3788 108.568 42.869 109.801C42.3592 111.034 41.6113 112.155 40.6681 113.099C39.7249 114.043 38.6049 114.792 37.3721 115.303C36.1393 115.814 34.8178 116.077 33.4833 116.077C32.1487 116.077 30.8273 115.814 29.5945 115.303C28.3616 114.792 27.2416 114.043 26.2984 113.099C25.3552 112.155 24.6074 111.034 24.0976 109.801C23.5878 108.568 23.3261 107.246 23.3274 105.911V83.5539C38.2222 57.7135 59.7692 36.3365 85.7267 21.6468C111.684 6.95714 141.104 -0.508442 170.925 0.0267581C200.746 0.561958 229.879 9.07839 255.292 24.69C280.706 40.3016 301.472 62.4381 315.43 88.7963V88.7963Z" fill="#E6E6E6"/>
<path opacity="0.2" d="M100.188 132.994C98.605 132.994 97.0372 132.682 95.5743 132.076C94.1115 131.47 92.7824 130.582 91.6628 129.463C90.5432 128.343 89.6552 127.014 89.0493 125.551C88.4435 124.088 88.1317 122.521 88.1318 120.937V127.224C88.1318 130.422 89.4021 133.488 91.6631 135.749C93.9241 138.011 96.9907 139.281 100.188 139.281C103.386 139.281 106.453 138.011 108.714 135.749C110.975 133.488 112.245 130.422 112.245 127.224V120.937C112.245 122.521 111.933 124.088 111.327 125.551C110.721 127.014 109.833 128.343 108.714 129.463C107.594 130.582 106.265 131.47 104.802 132.076C103.339 132.682 101.772 132.994 100.188 132.994Z" fill="black"/>
<path opacity="0.2" d="M124.369 132.994C122.786 132.994 121.218 132.682 119.755 132.076C118.292 131.47 116.963 130.582 115.843 129.463C114.724 128.343 113.836 127.014 113.23 125.551C112.624 124.088 112.312 122.521 112.313 120.937V127.224C112.313 130.422 113.583 133.488 115.844 135.749C118.105 138.011 121.171 139.281 124.369 139.281C127.567 139.281 130.633 138.011 132.894 135.749C135.155 133.488 136.426 130.422 136.426 127.224V120.937C136.426 122.521 136.114 124.088 135.508 125.551C134.902 127.014 134.014 128.343 132.895 129.463C131.775 130.582 130.446 131.47 128.983 132.076C127.52 132.682 125.952 132.994 124.369 132.994V132.994Z" fill="black"/>
<path opacity="0.2" d="M88.1316 104.412C87.1535 106.505 85.4908 108.201 83.4182 109.221C81.3457 110.241 78.9872 110.523 76.7324 110.022C74.4777 109.52 72.4615 108.264 71.0169 106.462C69.5723 104.659 68.7857 102.418 68.7871 100.108V106.395C68.7857 108.705 69.5723 110.946 71.0169 112.749C72.4615 114.551 74.4777 115.807 76.7324 116.309C78.9872 116.81 81.3457 116.528 83.4182 115.508C85.4908 114.488 87.1535 112.792 88.1316 110.699V104.412Z" fill="black"/>
<path opacity="0.2" d="M112.312 81.2471H112.245V87.534H112.312V81.2471Z" fill="black"/>
<path opacity="0.2" d="M43.6392 100.108C43.6365 102.8 42.5653 105.38 40.661 107.283C38.7567 109.185 36.175 110.254 33.4833 110.254C30.7915 110.254 28.2099 109.185 26.3055 107.283C24.4012 105.38 23.3301 102.8 23.3274 100.108V106.395C23.3301 109.087 24.4012 111.667 26.3055 113.57C28.2099 115.472 30.7915 116.541 33.4833 116.541C36.175 116.541 38.7567 115.472 40.661 113.57C42.5653 111.667 43.6365 109.087 43.6392 106.395V100.108Z" fill="black"/>
<path opacity="0.2" d="M68.7874 81.2471H67.7524V87.534H68.7874V81.2471Z" fill="black"/>
<path opacity="0.2" d="M55.6956 127.19C54.1123 127.191 52.5445 126.879 51.0816 126.273C49.6188 125.667 48.2897 124.779 47.1701 123.659C46.0506 122.54 45.1625 121.211 44.5566 119.748C43.9508 118.285 43.639 116.717 43.6392 115.134V121.421C43.6392 124.619 44.9094 127.685 47.1704 129.946C49.4315 132.207 52.4981 133.477 55.6957 133.477C58.8932 133.477 61.9599 132.207 64.2209 129.946C66.4819 127.685 67.7522 124.619 67.7522 121.421V115.134C67.7523 116.717 67.4405 118.285 66.8347 119.748C66.2288 121.211 65.3407 122.54 64.2211 123.659C63.1016 124.779 61.7724 125.667 60.3096 126.273C58.8468 126.879 57.2789 127.191 55.6956 127.19V127.19Z" fill="black"/>
<path opacity="0.2" d="M167.894 132.994C166.311 132.994 164.743 132.682 163.28 132.076C161.818 131.47 160.488 130.582 159.369 129.463C158.249 128.343 157.361 127.014 156.755 125.551C156.15 124.088 155.838 122.521 155.838 120.937V127.224C155.838 130.422 157.108 133.488 159.369 135.749C161.63 138.011 164.697 139.281 167.894 139.281C171.092 139.281 174.159 138.011 176.42 135.749C178.681 133.488 179.951 130.422 179.951 127.224V120.937C179.951 122.521 179.639 124.088 179.033 125.551C178.428 127.014 177.539 128.343 176.42 129.463C175.3 130.582 173.971 131.47 172.508 132.076C171.046 132.682 169.478 132.994 167.894 132.994Z" fill="black"/>
<path opacity="0.2" d="M256.429 74.4426C256.429 73.3524 255.996 72.3068 255.225 71.5359C254.455 70.765 253.409 70.3319 252.319 70.3319C251.229 70.3319 250.183 70.765 249.412 71.5359C248.641 72.3068 248.208 73.3524 248.208 74.4426V80.7296C248.207 80.1892 248.313 79.654 248.519 79.1545C248.725 78.6551 249.028 78.2012 249.41 77.8188C249.792 77.4364 250.245 77.133 250.744 76.926C251.243 76.719 251.778 76.6125 252.319 76.6125C252.859 76.6125 253.394 76.719 253.893 76.926C254.392 77.133 254.846 77.4364 255.228 77.8188C255.609 78.2012 255.912 78.6551 256.118 79.1545C256.325 79.654 256.43 80.1892 256.429 80.7296V74.4426Z" fill="black"/>
<path opacity="0.2" d="M155.838 100.108C155.838 102.431 155.042 104.685 153.582 106.492C152.122 108.299 150.087 109.551 147.815 110.038C145.543 110.525 143.173 110.219 141.1 109.169C139.027 108.12 137.377 106.391 136.425 104.272V110.559C137.377 112.678 139.027 114.407 141.1 115.456C143.173 116.506 145.543 116.812 147.815 116.325C150.087 115.838 152.122 114.586 153.582 112.779C155.042 110.972 155.838 108.718 155.838 106.395V100.108Z" fill="black"/>
<path opacity="0.2" d="M237.568 116.067C236.235 116.067 234.914 115.805 233.682 115.294C232.449 114.784 231.33 114.036 230.387 113.093C229.444 112.15 228.695 111.03 228.185 109.798C227.675 108.566 227.412 107.245 227.412 105.911L226.169 81.2471V87.5341L227.412 112.198C227.412 114.892 228.482 117.475 230.387 119.38C232.292 121.284 234.875 122.354 237.568 122.354C240.262 122.354 242.845 121.284 244.75 119.38C246.654 117.475 247.724 114.892 247.724 112.198L248.208 87.5341V81.2471L247.724 105.911C247.724 107.245 247.462 108.566 246.951 109.798C246.441 111.03 245.693 112.15 244.75 113.093C243.807 114.036 242.687 114.784 241.455 115.294C240.223 115.805 238.902 116.067 237.568 116.067V116.067Z" fill="black"/>
<path opacity="0.2" d="M305.274 120.903C303.906 120.904 302.551 120.627 301.293 120.089C300.034 119.551 298.898 118.764 297.952 117.774V120.937C297.952 124.135 296.682 127.201 294.421 129.462C292.16 131.723 289.093 132.994 285.896 132.994C282.698 132.994 279.632 131.723 277.371 129.462C275.11 127.201 273.839 124.135 273.839 120.937V118.302C272.381 119.613 270.573 120.474 268.636 120.78C266.698 121.085 264.714 120.822 262.922 120.023C261.131 119.223 259.61 117.922 258.543 116.275C257.477 114.629 256.91 112.709 256.913 110.748L256.429 81.2471V87.5341L256.913 117.035C256.91 118.996 257.477 120.916 258.543 122.562C259.61 124.209 261.131 125.51 262.922 126.31C264.714 127.109 266.698 127.372 268.636 127.067C270.573 126.761 272.381 125.9 273.839 124.589V127.224C273.839 130.422 275.11 133.488 277.371 135.749C279.632 138.011 282.698 139.281 285.896 139.281C289.093 139.281 292.16 138.011 294.421 135.749C296.682 133.488 297.952 130.422 297.952 127.224V124.061C299.354 125.525 301.162 126.535 303.143 126.962C305.124 127.39 307.187 127.214 309.067 126.458C310.947 125.702 312.558 124.4 313.692 122.721C314.826 121.041 315.432 119.061 315.43 117.035V110.747C315.43 112.081 315.168 113.402 314.657 114.634C314.147 115.866 313.399 116.986 312.456 117.929C311.513 118.872 310.393 119.62 309.161 120.131C307.929 120.641 306.608 120.904 305.274 120.903V120.903Z" fill="black"/>
<path opacity="0.2" d="M201.781 116.067C200.243 116.067 198.725 115.717 197.343 115.044C195.96 114.37 194.749 113.39 193.801 112.179C192.195 114.232 189.859 115.587 187.279 115.962C184.7 116.337 182.075 115.702 179.951 114.191V120.478C182.075 121.989 184.7 122.624 187.279 122.249C189.859 121.874 192.195 120.519 193.801 118.466C195.104 120.128 196.893 121.343 198.919 121.94C200.945 122.537 203.107 122.488 205.104 121.798C207.1 121.108 208.831 119.812 210.056 118.091C211.281 116.371 211.939 114.311 211.937 112.198L212.696 87.5341V81.2471L211.937 105.911C211.937 107.245 211.674 108.566 211.164 109.798C210.654 111.03 209.906 112.15 208.963 113.093C208.02 114.036 206.9 114.784 205.668 115.295C204.435 115.805 203.115 116.067 201.781 116.067Z" fill="black"/>
<path opacity="0.2" d="M226.17 68.6393C226.17 66.8526 225.46 65.1391 224.197 63.8757C222.933 62.6123 221.22 61.9026 219.433 61.9026C217.646 61.9026 215.933 62.6123 214.669 63.8757C213.406 65.1391 212.696 66.8526 212.696 68.6393V74.9263C212.696 73.1396 213.406 71.4261 214.669 70.1627C215.933 68.8993 217.646 68.1896 219.433 68.1896C221.22 68.1896 222.933 68.8993 224.197 70.1627C225.46 71.4261 226.17 73.1396 226.17 74.9263V68.6393Z" fill="black"/>
<path d="M113.522 69.8822H111.104V82.9398H113.522V69.8822Z" fill="#3F3D56"/>
<path d="M159.223 62.8698H156.805V75.9273H159.223V62.8698Z" fill="#3F3D56"/>
<path d="M101.189 114.133H98.771V127.19H101.189V114.133Z" fill="#3F3D56"/>
<path d="M199.959 91.3165L197.971 89.9407L190.541 100.679L192.53 102.054L199.959 91.3165Z" fill="#3F3D56"/>
<path d="M71.9135 70.6864L70.4131 72.5826L80.653 80.6847L82.1534 78.7884L71.9135 70.6864Z" fill="#3F3D56"/>
<path d="M214.096 21.8414L212.595 23.7377L222.835 31.8398L224.336 29.9435L214.096 21.8414Z" fill="#3F3D56"/>
<path d="M45.3146 84.2275L43.8142 86.1238L54.0541 94.2259L55.5545 92.3296L45.3146 84.2275Z" fill="#3F3D56"/>
<path d="M122.468 39.1727H120.05V52.2303H122.468V39.1727Z" fill="white"/>
<path d="M56.2132 106.395H53.7952V119.453H56.2132V106.395Z" fill="white"/>
<path d="M169.379 20.3118H166.961V33.3693H169.379V20.3118Z" fill="white"/>
<path d="M182.818 66.0397L180.656 64.9553L174.801 76.6263L176.962 77.7107L182.818 66.0397Z" fill="white"/>
<path d="M171.694 114.401L169.533 113.317L163.678 124.988L165.839 126.072L171.694 114.401Z" fill="white"/>
<path d="M138.455 87.8598L136.851 89.6692L146.622 98.3315L148.226 96.5221L138.455 87.8598Z" fill="white"/>
<path d="M90.5773 31.2769L88.9731 33.0863L98.7437 41.7486L100.348 39.9393L90.5773 31.2769Z" fill="white"/>
<path d="M249.686 53.0396L248.082 54.849L257.853 63.5113L259.457 61.7019L249.686 53.0396Z" fill="white"/>
<path d="M191.169 10.4815L189.565 12.2909L199.336 20.9532L200.94 19.1438L191.169 10.4815Z" fill="white"/>
<path d="M140.846 62.8698H138.428V75.9273H140.846V62.8698Z" fill="#FF6584"/>
<path d="M277.262 71.1156L275.036 70.1707L269.933 82.1899L272.159 83.1348L277.262 71.1156Z" fill="#FF6584"/>
<path d="M92.4432 83.9354L90.3491 85.1444L96.8779 96.4526L98.972 95.2436L92.4432 83.9354Z" fill="#FF6584"/>
<path d="M230.757 74.7467L228.663 75.9557L235.191 87.2639L237.285 86.0548L230.757 74.7467Z" fill="#FF6584"/>
<path d="M144.675 26.8698L142.581 28.0789L149.109 39.3871L151.203 38.1781L144.675 26.8698Z" fill="#FF6584"/>
<path d="M247.2 24.4509L245.105 25.6599L251.634 36.9681L253.728 35.7591L247.2 24.4509Z" fill="#FF6584"/>
<path d="M114.206 13.8114L112.112 15.0204L118.641 26.3286L120.735 25.1195L114.206 13.8114Z" fill="#FF6584"/>
<path d="M201.297 36.7546H198.879V49.8122H201.297V36.7546Z" fill="#FF6584"/>
<path d="M62.0167 58.5172H59.5986V71.5748H62.0167V58.5172Z" fill="#FF6584"/>
</svg>
