<svg width="446" height="305" viewBox="0 0 446 305" fill="none" xmlns="http://www.w3.org/2000/svg">
  <g filter="url(#filter0_d_153_1102)">
    <path
      d="M108.687 144.086H98.7658C98.4169 144.086 98.0824 144.224 97.8357 144.47C97.589 144.716 97.4504 145.049 97.4504 145.397V149.739C97.4504 150.087 97.589 150.421 97.8357 150.667C98.0824 150.913 98.4169 151.051 98.7658 151.051H100.41V157.557H107.043V151.051H108.687C109.036 151.051 109.37 150.913 109.617 150.667C109.863 150.421 110.002 150.087 110.002 149.739V145.397C110.002 145.049 109.863 144.716 109.617 144.47C109.37 144.224 109.036 144.086 108.687 144.086Z"
      fill="#F38C10" />
    <path
      d="M118.624 183.825C112.548 174.96 109.442 164.404 109.75 153.671C109.756 153.423 109.675 153.181 109.522 152.986C109.369 152.791 109.153 152.655 108.911 152.601V150.724H98.4326V152.575H98.2883C98.1405 152.575 97.9943 152.605 97.8589 152.664C97.7235 152.723 97.6018 152.81 97.5013 152.918C97.4008 153.026 97.3238 153.153 97.2749 153.292C97.2261 153.431 97.2066 153.579 97.2175 153.726C98.043 165.2 95.2556 175.489 88.8553 184.595C88.487 185.118 88.2989 185.746 88.3191 186.385L89.4648 221.724C89.4923 222.512 89.8241 223.259 90.3909 223.809C90.9576 224.36 91.7156 224.67 92.5065 224.677H116.206C117.006 224.67 117.772 224.352 118.34 223.791C118.909 223.23 119.235 222.469 119.249 221.672L119.691 187.361C119.704 186.101 119.332 184.868 118.624 183.825V183.825Z"
      fill="#3F3D56" />
    <path opacity="0.2"
      d="M106.618 145.5C106.618 146.251 106.319 146.971 105.787 147.501C105.255 148.032 104.533 148.33 103.781 148.33C103.028 148.33 102.306 148.032 101.774 147.501C101.242 146.971 100.943 146.251 100.943 145.5"
      fill="black" />
    <path
      d="M114.872 195.564H112.002C111.728 193.791 110.827 192.174 109.461 191.006C108.096 189.839 106.357 189.197 104.558 189.197C102.759 189.197 101.019 189.839 99.654 191.006C98.2886 192.174 97.3874 193.791 97.1134 195.564H94.2434C93.938 195.564 93.6363 195.629 93.3588 195.757C93.0814 195.884 92.8348 196.069 92.636 196.3C92.4371 196.531 92.2908 196.803 92.2069 197.095C92.1231 197.388 92.1037 197.696 92.1501 197.996L95.2674 218.201H113.167L116.953 198.065C117.011 197.76 117 197.446 116.922 197.145C116.844 196.845 116.7 196.565 116.502 196.327C116.303 196.088 116.054 195.896 115.772 195.764C115.49 195.632 115.183 195.564 114.872 195.564Z"
      fill="#F38C10" />
    <path d="M356.037 163.088L355.349 190.524L354.496 224.545H325.478L324.479 184.685L323.937 163.088H356.037Z"
      fill="#E6E6E6" />
    <path d="M341.913 148.492H337.804V202.779H341.913V148.492Z" fill="#F38C10" />
    <path
      d="M353.983 183.76L353.206 222.755H326.756L325.845 177.069C328.228 176.401 330.723 176.23 333.175 176.567C335.627 176.903 337.984 177.739 340.098 179.023C344.517 181.63 349.482 183.032 353.983 183.76Z"
      fill="#3F3D56" />
    <path d="M333.304 188.15H329.533V191.91H333.304V188.15Z" fill="#E6E6E6" />
    <path d="M335.872 180.468H332.102V184.228H335.872V180.468Z" fill="#E6E6E6" />
    <path d="M343.968 185.786L340.939 183.547L338.694 186.567L341.722 188.806L343.968 185.786Z" fill="#E6E6E6" />
    <path d="M350.779 192.448L347.751 190.208L345.505 193.228L348.533 195.467L350.779 192.448Z" fill="#E6E6E6" />
    <path d="M339.223 196.289L336.195 194.049L333.949 197.069L336.977 199.308L339.223 196.289Z" fill="#E6E6E6" />
    <path
      d="M348.077 178.964C348.502 178.964 348.847 178.62 348.847 178.196C348.847 177.772 348.502 177.428 348.077 177.428C347.651 177.428 347.306 177.772 347.306 178.196C347.306 178.62 347.651 178.964 348.077 178.964Z"
      fill="#3F3D56" />
    <path
      d="M332.412 173.843C332.837 173.843 333.182 173.499 333.182 173.075C333.182 172.651 332.837 172.307 332.412 172.307C331.986 172.307 331.641 172.651 331.641 173.075C331.641 173.499 331.986 173.843 332.412 173.843Z"
      fill="#3F3D56" />
    <path
      d="M345.508 168.466C345.934 168.466 346.279 168.122 346.279 167.697C346.279 167.273 345.934 166.929 345.508 166.929C345.083 166.929 344.738 167.273 344.738 167.697C344.738 168.122 345.083 168.466 345.508 168.466Z"
      fill="#3F3D56" />
    <path
      d="M222.177 224.31C268.788 224.31 306.573 186.633 306.573 140.155C306.573 93.6776 268.788 56 222.177 56C175.567 56 137.781 93.6776 137.781 140.155C137.781 186.633 175.567 224.31 222.177 224.31Z"
      fill="#F38C10" />
    <path opacity="0.2"
      d="M222.177 201.58C207.926 201.58 194.115 196.653 183.099 187.637C172.082 178.622 164.541 166.077 161.761 152.139C158.981 138.201 161.133 123.733 167.851 111.2C174.569 98.667 185.438 88.8446 198.604 83.4063C211.771 77.9681 226.422 77.2505 240.06 81.3757C253.698 85.501 265.479 94.2139 273.397 106.03C281.315 117.846 284.879 132.034 283.482 146.176C282.085 160.319 275.813 173.541 265.736 183.589C260.029 189.311 253.241 193.847 245.764 196.935C238.287 200.024 230.27 201.602 222.177 201.58V201.58ZM222.177 82.5183C190.305 82.5183 164.376 108.374 164.376 140.155C164.376 171.936 190.305 197.792 222.177 197.792C254.049 197.792 279.979 171.936 279.979 140.155C279.979 108.374 254.049 82.5183 222.177 82.5183Z"
      fill="black" />
    <path
      d="M222.177 199.686C255.15 199.686 281.879 173.033 281.879 140.155C281.879 107.277 255.15 80.6243 222.177 80.6243C189.205 80.6243 162.476 107.277 162.476 140.155C162.476 173.033 189.205 199.686 222.177 199.686Z"
      fill="#3F3D56" />
    <path
      d="M177.779 116.351C177.326 115.467 177.053 114.502 176.974 113.513C176.895 112.523 177.013 111.527 177.32 110.583C177.628 109.639 178.119 108.764 178.765 108.009C179.412 107.254 180.201 106.634 181.089 106.183C181.976 105.733 182.944 105.461 183.936 105.383C184.929 105.306 185.927 105.424 186.874 105.732C187.821 106.039 188.697 106.53 189.454 107.176C190.21 107.821 190.832 108.609 191.282 109.494L208.15 142.522C208.602 143.406 208.876 144.37 208.955 145.36C209.033 146.35 208.916 147.345 208.608 148.29C208.301 149.234 207.81 150.109 207.163 150.864C206.517 151.619 205.727 152.239 204.84 152.69C203.953 153.14 202.985 153.412 201.992 153.489C201 153.567 200.001 153.448 199.055 153.141C198.108 152.833 197.231 152.343 196.475 151.697C195.718 151.052 195.097 150.264 194.646 149.379L177.779 116.351Z"
      fill="#FF6584" />
    <path opacity="0.2"
      d="M179.66 120.035L178.882 118.511C182.767 115.501 187.329 113.287 192.385 111.654L193.164 113.178C187.691 114.314 183.036 116.417 179.66 120.035Z"
      fill="black" />
    <path opacity="0.2"
      d="M183.293 127.149L182.514 125.624C186.4 122.614 190.962 120.4 196.018 118.767L196.796 120.292C191.324 121.428 186.669 123.531 183.293 127.149Z"
      fill="black" />
    <path opacity="0.2"
      d="M186.926 134.262L186.147 132.738C190.033 129.728 194.595 127.514 199.651 125.881L200.43 127.405C194.957 128.541 190.302 130.644 186.926 134.262Z"
      fill="black" />
    <path opacity="0.2"
      d="M190.559 141.376L189.78 139.852C193.665 136.841 198.228 134.628 203.284 132.995L204.062 134.519C198.59 135.655 193.934 137.758 190.559 141.376Z"
      fill="black" />
    <path opacity="0.2"
      d="M194.192 148.489L193.413 146.965C197.298 143.955 201.861 141.741 206.917 140.108L207.695 141.632C202.223 142.769 197.567 144.872 194.192 148.489Z"
      fill="black" />
    <path
      d="M165.124 128.715C164.672 127.831 164.398 126.867 164.32 125.877C164.241 124.887 164.359 123.892 164.666 122.948C164.974 122.003 165.465 121.129 166.111 120.374C166.758 119.619 167.547 118.999 168.435 118.548C169.322 118.098 170.289 117.826 171.282 117.748C172.275 117.671 173.273 117.789 174.219 118.097C175.166 118.404 176.043 118.895 176.799 119.54C177.556 120.186 178.177 120.973 178.628 121.858L195.495 154.886C196.405 156.671 196.566 158.743 195.944 160.647C195.322 162.551 193.968 164.131 192.178 165.04C190.389 165.948 188.311 166.112 186.401 165.493C184.491 164.875 182.905 163.526 181.992 161.743L165.124 128.715Z"
      fill="#FF6584" />
    <path opacity="0.2"
      d="M167.006 132.399L166.227 130.875C170.112 127.865 174.675 125.651 179.731 124.018L180.509 125.542C175.037 126.679 170.381 128.782 167.006 132.399Z"
      fill="black" />
    <path opacity="0.2"
      d="M170.639 139.513L169.86 137.989C173.745 134.978 178.308 132.765 183.364 131.132L184.142 132.656C178.67 133.792 174.014 135.895 170.639 139.513Z"
      fill="black" />
    <path opacity="0.2"
      d="M174.272 146.626L173.493 145.102C177.378 142.092 181.941 139.878 186.997 138.245L187.775 139.769C182.303 140.906 177.647 143.009 174.272 146.626Z"
      fill="black" />
    <path opacity="0.2"
      d="M177.904 153.74L177.126 152.216C181.011 149.206 185.573 146.992 190.63 145.359L191.408 146.883C185.936 148.02 181.28 150.122 177.904 153.74Z"
      fill="black" />
    <path opacity="0.2"
      d="M181.538 160.854L180.759 159.329C184.644 156.319 189.206 154.105 194.263 152.472L195.041 153.997C189.569 155.133 184.913 157.236 181.538 160.854Z"
      fill="black" />
    <path
      d="M262.069 142.049L262.122 142.049C263.939 142.065 265.718 141.533 267.228 140.525C268.737 139.517 269.907 138.079 270.584 136.398C271.977 132.886 272.679 129.141 272.652 125.365C272.557 109.383 259.518 96.2721 243.492 96.051C236.667 95.9557 230.018 98.2168 224.674 102.451C219.33 106.685 215.618 112.632 214.169 119.283C212.719 125.934 213.62 132.88 216.72 138.944C219.82 145.008 224.927 149.817 231.177 152.555C232.828 153.284 234.662 153.499 236.438 153.17C238.214 152.842 239.848 151.986 241.128 150.715C243.872 147.964 247.136 145.782 250.73 144.295C254.324 142.808 258.178 142.044 262.069 142.049Z"
      fill="#E6E6E6" />
    <path
      d="M246.872 133.12C252.268 133.12 256.641 128.758 256.641 123.378C256.641 117.998 252.268 113.637 246.872 113.637C241.477 113.637 237.103 117.998 237.103 123.378C237.103 128.758 241.477 133.12 246.872 133.12Z"
      fill="#F9A825" />
    <path
      d="M225.64 122.283C226.275 122.283 226.791 121.769 226.791 121.135C226.791 120.502 226.275 119.988 225.64 119.988C225.004 119.988 224.489 120.502 224.489 121.135C224.489 121.769 225.004 122.283 225.64 122.283Z"
      fill="#3F3D56" />
    <path
      d="M187.648 123.365C188.284 123.365 188.799 122.851 188.799 122.218C188.799 121.584 188.284 121.07 187.648 121.07C187.012 121.07 186.497 121.584 186.497 122.218C186.497 122.851 187.012 123.365 187.648 123.365Z"
      fill="#3F3D56" />
    <path
      d="M231.774 110.39C232.409 110.39 232.925 109.876 232.925 109.242C232.925 108.608 232.409 108.094 231.774 108.094C231.138 108.094 230.623 108.608 230.623 109.242C230.623 109.876 231.138 110.39 231.774 110.39Z"
      fill="#3F3D56" />
    <path
      d="M231.74 143.468C232.376 143.468 232.891 142.954 232.891 142.32C232.891 141.686 232.376 141.172 231.74 141.172C231.105 141.172 230.59 141.686 230.59 142.32C230.59 142.954 231.105 143.468 231.74 143.468Z"
      fill="#3F3D56" />
    <path
      d="M254.536 108.02C255.171 108.02 255.687 107.506 255.687 106.872C255.687 106.238 255.171 105.724 254.536 105.724C253.9 105.724 253.385 106.238 253.385 106.872C253.385 107.506 253.9 108.02 254.536 108.02Z"
      fill="#3F3D56" />
    <path
      d="M180.18 139.409C180.816 139.409 181.331 138.895 181.331 138.261C181.331 137.627 180.816 137.114 180.18 137.114C179.545 137.114 179.029 137.627 179.029 138.261C179.029 138.895 179.545 139.409 180.18 139.409Z"
      fill="#3F3D56" />
    <path
      d="M188.593 155.915C189.229 155.915 189.744 155.401 189.744 154.767C189.744 154.134 189.229 153.62 188.593 153.62C187.957 153.62 187.442 154.134 187.442 154.767C187.442 155.401 187.957 155.915 188.593 155.915Z"
      fill="#3F3D56" />
    <path
      d="M241.445 161.262C243.843 161.262 245.787 159.323 245.787 156.932C245.787 154.541 243.843 152.603 241.445 152.603C239.047 152.603 237.103 154.541 237.103 156.932C237.103 159.323 239.047 161.262 241.445 161.262Z"
      fill="#FF6584" />
    <path opacity="0.2"
      d="M244.701 157.203C244.701 158.064 244.358 158.89 243.747 159.499C243.137 160.108 242.308 160.45 241.445 160.45C240.581 160.45 239.753 160.108 239.142 159.499C238.531 158.89 238.188 158.064 238.188 157.203"
      fill="black" />
    <path opacity="0.2"
      d="M238.188 156.661C238.188 155.8 238.531 154.974 239.142 154.365C239.753 153.756 240.581 153.414 241.445 153.414C242.308 153.414 243.137 153.756 243.747 154.365C244.358 154.974 244.701 155.8 244.701 156.661"
      fill="black" />
    <path
      d="M239.816 155.85C239.966 155.85 240.088 155.668 240.088 155.444C240.088 155.22 239.966 155.038 239.816 155.038C239.666 155.038 239.545 155.22 239.545 155.444C239.545 155.668 239.666 155.85 239.816 155.85Z"
      fill="#FF6584" />
    <path
      d="M241.444 155.309C241.594 155.309 241.716 155.127 241.716 154.903C241.716 154.679 241.594 154.497 241.444 154.497C241.295 154.497 241.173 154.679 241.173 154.903C241.173 155.127 241.295 155.309 241.444 155.309Z"
      fill="#FF6584" />
    <path
      d="M241.444 158.826C241.594 158.826 241.716 158.645 241.716 158.421C241.716 158.196 241.594 158.015 241.444 158.015C241.295 158.015 241.173 158.196 241.173 158.421C241.173 158.645 241.295 158.826 241.444 158.826Z"
      fill="#FF6584" />
    <path
      d="M243.073 156.662C243.223 156.662 243.344 156.48 243.344 156.256C243.344 156.032 243.223 155.85 243.073 155.85C242.923 155.85 242.801 156.032 242.801 156.256C242.801 156.48 242.923 156.662 243.073 156.662Z"
      fill="#FF6584" />
    <path
      d="M242.802 159.638C242.952 159.638 243.073 159.456 243.073 159.232C243.073 159.008 242.952 158.826 242.802 158.826C242.652 158.826 242.53 159.008 242.53 159.232C242.53 159.456 242.652 159.638 242.802 159.638Z"
      fill="#FF6584" />
    <path
      d="M239.545 158.285C239.695 158.285 239.816 158.103 239.816 157.879C239.816 157.655 239.695 157.473 239.545 157.473C239.395 157.473 239.274 157.655 239.274 157.879C239.274 158.103 239.395 158.285 239.545 158.285Z"
      fill="#FF6584" />
    <path
      d="M250.129 149.626C252.527 149.626 254.47 147.688 254.47 145.297C254.47 142.905 252.527 140.967 250.129 140.967C247.731 140.967 245.787 142.905 245.787 145.297C245.787 147.688 247.731 149.626 250.129 149.626Z"
      fill="#FF6584" />
    <path opacity="0.2"
      d="M253.385 145.567C253.385 146.428 253.042 147.254 252.431 147.863C251.82 148.472 250.992 148.814 250.129 148.814C249.265 148.814 248.437 148.472 247.826 147.863C247.215 147.254 246.872 146.428 246.872 145.567"
      fill="black" />
    <path opacity="0.2"
      d="M246.872 145.026C246.872 144.165 247.215 143.339 247.826 142.73C248.437 142.121 249.265 141.779 250.129 141.779C250.992 141.779 251.82 142.121 252.431 142.73C253.042 143.339 253.385 144.165 253.385 145.026"
      fill="black" />
    <path
      d="M248.5 144.214C248.65 144.214 248.771 144.032 248.771 143.808C248.771 143.584 248.65 143.402 248.5 143.402C248.35 143.402 248.229 143.584 248.229 143.808C248.229 144.032 248.35 144.214 248.5 144.214Z"
      fill="#FF6584" />
    <path
      d="M250.128 143.673C250.278 143.673 250.4 143.491 250.4 143.267C250.4 143.043 250.278 142.861 250.128 142.861C249.978 142.861 249.857 143.043 249.857 143.267C249.857 143.491 249.978 143.673 250.128 143.673Z"
      fill="#FF6584" />
    <path
      d="M250.128 147.191C250.278 147.191 250.4 147.009 250.4 146.785C250.4 146.561 250.278 146.379 250.128 146.379C249.978 146.379 249.857 146.561 249.857 146.785C249.857 147.009 249.978 147.191 250.128 147.191Z"
      fill="#FF6584" />
    <path
      d="M251.757 145.026C251.907 145.026 252.028 144.844 252.028 144.62C252.028 144.396 251.907 144.214 251.757 144.214C251.607 144.214 251.485 144.396 251.485 144.62C251.485 144.844 251.607 145.026 251.757 145.026Z"
      fill="#FF6584" />
    <path
      d="M251.485 148.002C251.635 148.002 251.757 147.821 251.757 147.597C251.757 147.372 251.635 147.191 251.485 147.191C251.336 147.191 251.214 147.372 251.214 147.597C251.214 147.821 251.336 148.002 251.485 148.002Z"
      fill="#FF6584" />
    <path
      d="M248.229 146.649C248.379 146.649 248.5 146.468 248.5 146.244C248.5 146.019 248.379 145.838 248.229 145.838C248.079 145.838 247.958 146.019 247.958 146.244C247.958 146.468 248.079 146.649 248.229 146.649Z"
      fill="#FF6584" />
    <path
      d="M258.813 155.579C261.211 155.579 263.155 153.641 263.155 151.25C263.155 148.859 261.211 146.92 258.813 146.92C256.415 146.92 254.471 148.859 254.471 151.25C254.471 153.641 256.415 155.579 258.813 155.579Z"
      fill="#F38C10" />
    <path opacity="0.2"
      d="M262.069 151.52C262.069 152.381 261.725 153.207 261.115 153.816C260.504 154.425 259.676 154.767 258.812 154.767C257.948 154.767 257.12 154.425 256.509 153.816C255.899 153.207 255.556 152.381 255.556 151.52"
      fill="black" />
    <path opacity="0.2"
      d="M255.556 150.979C255.556 150.118 255.899 149.292 256.509 148.683C257.12 148.074 257.948 147.732 258.812 147.732C259.676 147.732 260.504 148.074 261.115 148.683C261.725 149.292 262.069 150.118 262.069 150.979"
      fill="black" />
    <path
      d="M257.184 150.167C257.334 150.167 257.455 149.986 257.455 149.761C257.455 149.537 257.334 149.355 257.184 149.355C257.034 149.355 256.913 149.537 256.913 149.761C256.913 149.986 257.034 150.167 257.184 150.167Z"
      fill="#F38C10" />
    <path
      d="M258.812 149.626C258.962 149.626 259.084 149.444 259.084 149.22C259.084 148.996 258.962 148.814 258.812 148.814C258.663 148.814 258.541 148.996 258.541 149.22C258.541 149.444 258.663 149.626 258.812 149.626Z"
      fill="#F38C10" />
    <path
      d="M258.812 153.144C258.962 153.144 259.084 152.962 259.084 152.738C259.084 152.514 258.962 152.332 258.812 152.332C258.663 152.332 258.541 152.514 258.541 152.738C258.541 152.962 258.663 153.144 258.812 153.144Z"
      fill="#F38C10" />
    <path
      d="M260.441 150.979C260.591 150.979 260.712 150.797 260.712 150.573C260.712 150.349 260.591 150.167 260.441 150.167C260.291 150.167 260.169 150.349 260.169 150.573C260.169 150.797 260.291 150.979 260.441 150.979Z"
      fill="#F38C10" />
    <path
      d="M260.169 153.956C260.319 153.956 260.441 153.774 260.441 153.55C260.441 153.326 260.319 153.144 260.169 153.144C260.019 153.144 259.898 153.326 259.898 153.55C259.898 153.774 260.019 153.956 260.169 153.956Z"
      fill="#F38C10" />
    <path
      d="M256.913 152.603C257.063 152.603 257.184 152.421 257.184 152.197C257.184 151.972 257.063 151.791 256.913 151.791C256.763 151.791 256.641 151.972 256.641 152.197C256.641 152.421 256.763 152.603 256.913 152.603Z"
      fill="#F38C10" />
    <path
      d="M237.103 156.12C239.501 156.12 241.445 154.182 241.445 151.791C241.445 149.4 239.501 147.461 237.103 147.461C234.705 147.461 232.761 149.4 232.761 151.791C232.761 154.182 234.705 156.12 237.103 156.12Z"
      fill="#F38C10" />
    <path opacity="0.2"
      d="M240.359 152.061C240.359 152.922 240.016 153.748 239.405 154.357C238.795 154.966 237.966 155.308 237.103 155.308C236.239 155.308 235.411 154.966 234.8 154.357C234.189 153.748 233.846 152.922 233.846 152.061"
      fill="black" />
    <path opacity="0.2"
      d="M233.846 151.52C233.846 150.659 234.189 149.833 234.8 149.224C235.411 148.615 236.239 148.273 237.103 148.273C237.966 148.273 238.795 148.615 239.405 149.224C240.016 149.833 240.359 150.659 240.359 151.52"
      fill="black" />
    <path
      d="M235.474 150.709C235.624 150.709 235.746 150.527 235.746 150.303C235.746 150.078 235.624 149.897 235.474 149.897C235.325 149.897 235.203 150.078 235.203 150.303C235.203 150.527 235.325 150.709 235.474 150.709Z"
      fill="#F38C10" />
    <path
      d="M237.103 150.167C237.253 150.167 237.374 149.986 237.374 149.761C237.374 149.537 237.253 149.355 237.103 149.355C236.953 149.355 236.832 149.537 236.832 149.761C236.832 149.986 236.953 150.167 237.103 150.167Z"
      fill="#F38C10" />
    <path
      d="M237.103 153.685C237.253 153.685 237.374 153.503 237.374 153.279C237.374 153.055 237.253 152.873 237.103 152.873C236.953 152.873 236.832 153.055 236.832 153.279C236.832 153.503 236.953 153.685 237.103 153.685Z"
      fill="#F38C10" />
    <path
      d="M238.731 151.52C238.881 151.52 239.002 151.339 239.002 151.114C239.002 150.89 238.881 150.708 238.731 150.708C238.581 150.708 238.46 150.89 238.46 151.114C238.46 151.339 238.581 151.52 238.731 151.52Z"
      fill="#F38C10" />
    <path
      d="M238.46 154.497C238.609 154.497 238.731 154.315 238.731 154.091C238.731 153.867 238.609 153.685 238.46 153.685C238.31 153.685 238.188 153.867 238.188 154.091C238.188 154.315 238.31 154.497 238.46 154.497Z"
      fill="#F38C10" />
    <path
      d="M235.203 153.144C235.353 153.144 235.475 152.962 235.475 152.738C235.475 152.514 235.353 152.332 235.203 152.332C235.053 152.332 234.932 152.514 234.932 152.738C234.932 152.962 235.053 153.144 235.203 153.144Z"
      fill="#F38C10" />
    <path
      d="M246.872 158.015C249.27 158.015 251.214 156.076 251.214 153.685C251.214 151.294 249.27 149.355 246.872 149.355C244.474 149.355 242.53 151.294 242.53 153.685C242.53 156.076 244.474 158.015 246.872 158.015Z"
      fill="#F38C10" />
    <path opacity="0.2"
      d="M250.129 153.956C250.129 154.382 250.044 154.804 249.881 155.198C249.717 155.592 249.477 155.95 249.175 156.252C248.872 156.553 248.513 156.792 248.118 156.956C247.723 157.119 247.3 157.203 246.872 157.203C246.445 157.203 246.021 157.119 245.626 156.956C245.231 156.792 244.872 156.553 244.57 156.252C244.267 155.95 244.027 155.592 243.864 155.198C243.7 154.804 243.616 154.382 243.616 153.956"
      fill="black" />
    <path opacity="0.2"
      d="M243.616 153.414C243.616 152.988 243.7 152.566 243.864 152.172C244.027 151.778 244.267 151.42 244.57 151.118C244.872 150.817 245.231 150.578 245.626 150.414C246.021 150.251 246.445 150.167 246.872 150.167C247.3 150.167 247.723 150.251 248.118 150.414C248.513 150.578 248.872 150.817 249.175 151.118C249.477 151.42 249.717 151.778 249.881 152.172C250.044 152.566 250.129 152.988 250.129 153.414"
      fill="black" />
    <path
      d="M245.244 152.603C245.394 152.603 245.515 152.421 245.515 152.197C245.515 151.972 245.394 151.791 245.244 151.791C245.094 151.791 244.972 151.972 244.972 152.197C244.972 152.421 245.094 152.603 245.244 152.603Z"
      fill="#F38C10" />
    <path
      d="M246.872 152.061C247.022 152.061 247.143 151.88 247.143 151.655C247.143 151.431 247.022 151.25 246.872 151.25C246.722 151.25 246.601 151.431 246.601 151.655C246.601 151.88 246.722 152.061 246.872 152.061Z"
      fill="#F38C10" />
    <path
      d="M246.872 155.579C247.022 155.579 247.143 155.397 247.143 155.173C247.143 154.949 247.022 154.767 246.872 154.767C246.722 154.767 246.601 154.949 246.601 155.173C246.601 155.397 246.722 155.579 246.872 155.579Z"
      fill="#F38C10" />
    <path
      d="M248.5 153.414C248.65 153.414 248.771 153.233 248.771 153.008C248.771 152.784 248.65 152.603 248.5 152.603C248.35 152.603 248.229 152.784 248.229 153.008C248.229 153.233 248.35 153.414 248.5 153.414Z"
      fill="#F38C10" />
    <path
      d="M248.229 156.391C248.379 156.391 248.5 156.209 248.5 155.985C248.5 155.761 248.379 155.579 248.229 155.579C248.079 155.579 247.958 155.761 247.958 155.985C247.958 156.209 248.079 156.391 248.229 156.391Z"
      fill="#F38C10" />
    <path
      d="M244.972 155.038C245.122 155.038 245.244 154.856 245.244 154.632C245.244 154.408 245.122 154.226 244.972 154.226C244.822 154.226 244.701 154.408 244.701 154.632C244.701 154.856 244.822 155.038 244.972 155.038Z"
      fill="#F38C10" />
    <path
      d="M253.656 162.615C256.054 162.615 257.998 160.676 257.998 158.285C257.998 155.894 256.054 153.956 253.656 153.956C251.258 153.956 249.314 155.894 249.314 158.285C249.314 160.676 251.258 162.615 253.656 162.615Z"
      fill="#FF6584" />
    <path opacity="0.2"
      d="M256.913 158.556C256.913 159.417 256.57 160.243 255.959 160.852C255.348 161.461 254.52 161.803 253.656 161.803C252.793 161.803 251.964 161.461 251.354 160.852C250.743 160.243 250.4 159.417 250.4 158.556"
      fill="black" />
    <path opacity="0.2"
      d="M250.4 158.014C250.4 157.153 250.743 156.327 251.354 155.718C251.964 155.109 252.793 154.767 253.656 154.767C254.52 154.767 255.348 155.109 255.959 155.718C256.57 156.327 256.913 157.153 256.913 158.014"
      fill="black" />
    <path
      d="M252.028 157.203C252.178 157.203 252.299 157.021 252.299 156.797C252.299 156.573 252.178 156.391 252.028 156.391C251.878 156.391 251.757 156.573 251.757 156.797C251.757 157.021 251.878 157.203 252.028 157.203Z"
      fill="#FF6584" />
    <path
      d="M253.656 156.662C253.806 156.662 253.928 156.48 253.928 156.256C253.928 156.032 253.806 155.85 253.656 155.85C253.506 155.85 253.385 156.032 253.385 156.256C253.385 156.48 253.506 156.662 253.656 156.662Z"
      fill="#FF6584" />
    <path
      d="M253.656 160.179C253.806 160.179 253.928 159.997 253.928 159.773C253.928 159.549 253.806 159.367 253.656 159.367C253.506 159.367 253.385 159.549 253.385 159.773C253.385 159.997 253.506 160.179 253.656 160.179Z"
      fill="#FF6584" />
    <path
      d="M255.285 158.014C255.434 158.014 255.556 157.833 255.556 157.609C255.556 157.384 255.434 157.203 255.285 157.203C255.135 157.203 255.013 157.384 255.013 157.609C255.013 157.833 255.135 158.014 255.285 158.014Z"
      fill="#FF6584" />
    <path
      d="M255.013 160.991C255.163 160.991 255.285 160.809 255.285 160.585C255.285 160.361 255.163 160.179 255.013 160.179C254.863 160.179 254.742 160.361 254.742 160.585C254.742 160.809 254.863 160.991 255.013 160.991Z"
      fill="#FF6584" />
    <path
      d="M251.757 159.638C251.907 159.638 252.028 159.456 252.028 159.232C252.028 159.008 251.907 158.826 251.757 158.826C251.607 158.826 251.485 159.008 251.485 159.232C251.485 159.456 251.607 159.638 251.757 159.638Z"
      fill="#FF6584" />
    <path
      d="M197.819 142.927C198.455 142.927 198.97 142.413 198.97 141.779C198.97 141.145 198.455 140.631 197.819 140.631C197.184 140.631 196.668 141.145 196.668 141.779C196.668 142.413 197.184 142.927 197.819 142.927Z"
      fill="#3F3D56" />
    <path d="M229.102 183.434L201.462 175.79L202.521 171.869L230.161 179.512L229.102 183.434Z" fill="#F9A825" />
    <path
      d="M225.05 182.123C215.585 183.93 205.862 183.93 196.397 182.123V178.058C205.884 179.625 215.564 179.625 225.05 178.058V182.123Z"
      fill="#F9A825" />
    <path
      d="M227.996 169.927C218.531 171.734 208.808 171.734 199.343 169.927V165.862C208.829 167.43 218.51 167.43 227.996 165.862V169.927Z"
      fill="#F9A825" />
    <path
      d="M237.904 174.805C228.439 176.612 218.716 176.612 209.251 174.805V170.74C218.737 172.308 228.418 172.308 237.904 170.74V174.805Z"
      fill="#F9A825" />
    <path
      d="M240.314 179.412C230.849 181.219 221.126 181.219 211.661 179.412V175.347C221.148 176.915 230.828 176.915 240.314 175.347V179.412Z"
      fill="#F9A825" />
    <path d="M248.717 185.433L220.448 190.168L219.792 186.157L248.061 181.422L248.717 185.433Z" fill="#F9A825" />
    <path
      d="M244.494 185.954C236.657 191.588 227.824 195.696 218.458 198.063L216.781 194.369C226.065 191.777 234.86 187.686 242.817 182.26L244.494 185.954Z"
      fill="#F9A825" />
    <path
      d="M242.139 173.627C234.302 179.261 225.468 183.369 216.103 185.736L214.426 182.042C223.709 179.45 232.504 175.36 240.462 169.934L242.139 173.627Z"
      fill="#F9A825" />
    <path
      d="M253.155 173.873C245.317 179.507 236.484 183.615 227.119 185.982L225.442 182.288C234.725 179.696 243.52 175.605 251.477 170.179L253.155 173.873Z"
      fill="#F9A825" />
    <path
      d="M257.246 177.041C249.408 182.674 240.575 186.783 231.21 189.15L229.533 185.456C238.816 182.864 247.611 178.773 255.569 173.347L257.246 177.041Z"
      fill="#F9A825" />
    <path d="M222.991 169.109H221.635V170.462H222.991V169.109Z" fill="#00BF71" />
    <path d="M227.062 192.65H225.705V194.003H227.062V192.65Z" fill="#00BF71" />
    <path d="M205.352 169.109H203.996V170.462H205.352V169.109Z" fill="#00BF71" />
    <path d="M236.831 185.886H235.475V187.239H236.831V185.886Z" fill="#00BF71" />
    <path d="M237.645 178.039H236.289V179.392H237.645V178.039Z" fill="#00BF71" />
    <path d="M215.263 174.334L213.691 173.271L213.081 174.166L214.653 175.23L215.263 174.334Z" fill="#00BF71" />
    <path d="M231.273 177.311L229.701 176.247L229.092 177.143L230.664 178.206L231.273 177.311Z" fill="#00BF71" />
    <path d="M211.735 182.452L210.163 181.389L209.553 182.284L211.125 183.348L211.735 182.452Z" fill="#00BF71" />
    <path d="M221.686 182.373L222.752 180.806L221.854 180.198L220.788 181.765L221.686 182.373Z" fill="#00BF71" />
    <path d="M229.013 184.268L230.08 182.7L229.181 182.092L228.115 183.66L229.013 184.268Z" fill="#00BF71" />
    <path d="M248.554 177.773L249.62 176.205L248.722 175.597L247.655 177.165L248.554 177.773Z" fill="#00BF71" />
    <path d="M377 224.22H67V225H377V224.22Z" fill="#3F3D56" />
  </g>
  <defs>
    <filter id="filter0_d_153_1102" x="0" y="0" width="446" height="305" filterUnits="userSpaceOnUse"
      color-interpolation-filters="sRGB">
      <feFlood flood-opacity="0" result="BackgroundImageFix" />
      <feColorMatrix in="SourceAlpha" type="matrix" values="0 0 0 0 0 0 0 0 0 0 0 0 0 0 0 0 0 0 127 0"
        result="hardAlpha" />
      <feOffset dx="1" dy="12" />
      <feGaussianBlur stdDeviation="34" />
      <feComposite in2="hardAlpha" operator="out" />
      <feColorMatrix type="matrix" values="0 0 0 0 0.952941 0 0 0 0 0.54902 0 0 0 0 0.0627451 0 0 0 0.68 0" />
      <feBlend mode="normal" in2="BackgroundImageFix" result="effect1_dropShadow_153_1102" />
      <feBlend mode="normal" in="SourceGraphic" in2="effect1_dropShadow_153_1102" result="shape" />
    </filter>
  </defs>
</svg>